<?xml version="1.0" encoding="utf-8"?>
<!-- Generator: Adobe Illustrator 24.0.0, SVG Export Plug-In . SVG Version: 6.00 Build 0)  -->
<svg version="1.1" id="Capa_1" xmlns="http://www.w3.org/2000/svg" xmlns:xlink="http://www.w3.org/1999/xlink" x="0px" y="0px"
	 viewBox="0 0 512 512" style="enable-background:new 0 0 512 512;" xml:space="preserve">
<style type="text/css">
	.st0{fill:#FFFFFF;}
	.st1{font-family:'ArialMT';}
	.st2{font-size:250.9255px;}
</style>
<g>
	<path d="M437,75C388.7,26.6,324.4,0,256,0S123.3,26.6,75,75C26.6,123.3,0,187.6,0,256s26.6,132.7,75,181c48.4,48.4,112.6,75,181,75
		s132.7-26.6,181-75c48.4-48.4,75-112.6,75-181S485.4,123.3,437,75L437,75z M472,241v30h-40v-30H472z M121,142.2l-28.3-28.3
		l21.2-21.2l28.3,28.3L121,142.2z M142.2,391l-28.3,28.3l-21.2-21.2l28.3-28.3L142.2,391z M361.9,241v30H241V150.1h30V241H361.9z
		 M271,80.1h-30V40h30V80.1z M241,431.9h30v40h-30V431.9z M369.8,391l21.2-21.2l28.3,28.3l-21.2,21.2L369.8,391z M391,142.2
		L369.8,121l28.3-28.3l21.2,21.2L391,142.2z M80.1,241v30H40v-30H80.1z"/>
</g>
<rect x="236" y="142.2" width="141" height="182.8"/>
<text transform="matrix(1.284 0 0 1 148 363.5518)" class="st0 st1 st2">V</text>
</svg>
